<svg width="64" height="24" viewBox="0 0 64 24" fill="none" xmlns="http://www.w3.org/2000/svg">
<rect width="64" height="24" fill="url(#paint0_linear_2_5)"/>
<rect x="1" y="1" width="62" height="22" fill="white" fill-opacity="0.8"/>
<path d="M23.2808 10.0542C23.2271 10.1545 23.1536 10.2046 23.0605 10.2046C23.0068 10.2046 22.9424 10.1777 22.8672 10.124C22.7956 10.0667 22.7061 10.0059 22.5986 9.94141C22.4948 9.87337 22.3677 9.8125 22.2173 9.75879C22.0705 9.7015 21.8932 9.67285 21.6855 9.67285C21.4886 9.67285 21.3149 9.7015 21.1646 9.75879C21.0177 9.8125 20.8942 9.88949 20.7939 9.98975C20.6973 10.0864 20.6239 10.201 20.5737 10.3335C20.5236 10.4624 20.4985 10.6021 20.4985 10.7524C20.4985 10.9494 20.5433 11.1123 20.6328 11.2412C20.7259 11.3701 20.8459 11.4811 20.9927 11.5742C21.1431 11.6637 21.3132 11.7425 21.5029 11.8105C21.6927 11.8786 21.8861 11.9484 22.083 12.02C22.2799 12.0916 22.4733 12.174 22.6631 12.2671C22.8529 12.3566 23.0212 12.4712 23.168 12.6108C23.3184 12.7469 23.4383 12.9152 23.5278 13.1157C23.6209 13.3162 23.6675 13.5615 23.6675 13.8516C23.6675 14.1631 23.6174 14.4549 23.5171 14.7271C23.4168 14.9956 23.27 15.2301 23.0767 15.4307C22.8869 15.6312 22.6523 15.7887 22.373 15.9033C22.0938 16.0179 21.7751 16.0752 21.417 16.0752C20.9837 16.0752 20.5845 15.9928 20.2192 15.8281C19.8576 15.6598 19.5496 15.4342 19.2954 15.1514L19.5801 14.6895C19.6051 14.6501 19.6356 14.6196 19.6714 14.5981C19.7108 14.5731 19.7555 14.5605 19.8057 14.5605C19.8737 14.5605 19.9489 14.5981 20.0312 14.6733C20.1172 14.745 20.2228 14.8255 20.3481 14.915C20.4735 15.001 20.6239 15.0815 20.7993 15.1567C20.9784 15.2284 21.1914 15.2642 21.4385 15.2642C21.6462 15.2642 21.8306 15.2337 21.9917 15.1729C22.1528 15.112 22.2889 15.026 22.3999 14.915C22.5145 14.804 22.6004 14.6715 22.6577 14.5176C22.7186 14.36 22.749 14.1864 22.749 13.9966C22.749 13.7853 22.7025 13.6117 22.6094 13.4756C22.5199 13.3395 22.3999 13.2267 22.2495 13.1372C22.1027 13.0441 21.9344 12.9671 21.7446 12.9062C21.5549 12.8418 21.3615 12.7756 21.1646 12.7075C20.9676 12.6395 20.7743 12.5625 20.5845 12.4766C20.3947 12.387 20.2246 12.2707 20.0742 12.1274C19.9274 11.9842 19.8075 11.807 19.7144 11.5957C19.6248 11.3844 19.5801 11.1213 19.5801 10.8062C19.5801 10.5591 19.6266 10.3192 19.7197 10.0864C19.8128 9.8501 19.9471 9.64242 20.1226 9.46338C20.3016 9.28076 20.52 9.13574 20.7778 9.02832C21.0392 8.91732 21.3382 8.86182 21.6748 8.86182C22.0508 8.86182 22.3945 8.92448 22.7061 9.0498C23.0212 9.17513 23.2933 9.35775 23.5225 9.59766L23.2808 10.0542ZM24.8276 16V8.3623H25.7729V11.4399C25.9914 11.2036 26.2331 11.0156 26.498 10.876C26.7666 10.7363 27.0763 10.6665 27.4272 10.6665C27.7137 10.6665 27.9644 10.7148 28.1792 10.8115C28.3976 10.9046 28.5802 11.0389 28.7271 11.2144C28.8739 11.3862 28.9831 11.5957 29.0547 11.8428C29.1299 12.0863 29.1675 12.3566 29.1675 12.6538V16H28.2222V12.6538C28.2222 12.2635 28.1344 11.9591 27.959 11.7407C27.7835 11.5223 27.515 11.4131 27.1533 11.4131C26.8848 11.4131 26.6359 11.4775 26.4067 11.6064C26.1776 11.7354 25.9663 11.9126 25.7729 12.1382V16H24.8276ZM32.7124 10.6665C33.0275 10.6665 33.3193 10.7184 33.5879 10.8223C33.8564 10.9261 34.0892 11.0783 34.2861 11.2788C34.4831 11.4793 34.637 11.7246 34.748 12.0146C34.859 12.3047 34.9146 12.6377 34.9146 13.0137C34.9146 13.1605 34.8984 13.259 34.8662 13.3091C34.834 13.3556 34.7749 13.3789 34.689 13.3789H31.1763C31.1834 13.7083 31.2282 13.9966 31.3105 14.2437C31.3929 14.4871 31.5057 14.6895 31.6489 14.8506C31.7957 15.0117 31.9694 15.1335 32.1699 15.2158C32.3704 15.2946 32.5942 15.334 32.8413 15.334C33.0705 15.334 33.2692 15.3089 33.4375 15.2588C33.6058 15.2051 33.749 15.146 33.8672 15.0815C33.9889 15.0171 34.091 14.9598 34.1733 14.9097C34.2557 14.856 34.3273 14.8291 34.3882 14.8291C34.4276 14.8291 34.4616 14.8381 34.4902 14.856C34.5189 14.8703 34.5439 14.8918 34.5654 14.9204L34.834 15.2642C34.7158 15.4038 34.5762 15.5256 34.415 15.6294C34.2575 15.7297 34.0874 15.8138 33.9048 15.8818C33.7222 15.9463 33.5324 15.9946 33.3354 16.0269C33.1421 16.0591 32.9505 16.0752 32.7607 16.0752C32.3955 16.0752 32.0589 16.0143 31.751 15.8926C31.443 15.7708 31.1763 15.5918 30.9507 15.3555C30.7287 15.1156 30.555 14.8219 30.4297 14.4746C30.3044 14.1237 30.2417 13.7209 30.2417 13.2661C30.2417 12.9009 30.2972 12.5607 30.4082 12.2456C30.5228 11.9269 30.6857 11.6512 30.897 11.4185C31.1118 11.1821 31.3714 10.9977 31.6758 10.8652C31.9837 10.7327 32.3293 10.6665 32.7124 10.6665ZM32.7285 11.354C32.2881 11.354 31.939 11.4829 31.6812 11.7407C31.4269 11.9985 31.2676 12.3512 31.2031 12.7988H34.0659C34.0659 12.5876 34.0355 12.3942 33.9746 12.2188C33.9137 12.0397 33.826 11.8875 33.7114 11.7622C33.5968 11.6333 33.4554 11.533 33.2871 11.4614C33.1224 11.3898 32.9362 11.354 32.7285 11.354ZM38.1909 10.6665C38.506 10.6665 38.7979 10.7184 39.0664 10.8223C39.335 10.9261 39.5677 11.0783 39.7646 11.2788C39.9616 11.4793 40.1156 11.7246 40.2266 12.0146C40.3376 12.3047 40.3931 12.6377 40.3931 13.0137C40.3931 13.1605 40.377 13.259 40.3447 13.3091C40.3125 13.3556 40.2534 13.3789 40.1675 13.3789H36.6548C36.6619 13.7083 36.7067 13.9966 36.7891 14.2437C36.8714 14.4871 36.9842 14.6895 37.1274 14.8506C37.2743 15.0117 37.4479 15.1335 37.6484 15.2158C37.849 15.2946 38.0728 15.334 38.3198 15.334C38.549 15.334 38.7477 15.3089 38.916 15.2588C39.0843 15.2051 39.2275 15.146 39.3457 15.0815C39.4674 15.0171 39.5695 14.9598 39.6519 14.9097C39.7342 14.856 39.8058 14.8291 39.8667 14.8291C39.9061 14.8291 39.9401 14.8381 39.9688 14.856C39.9974 14.8703 40.0225 14.8918 40.0439 14.9204L40.3125 15.2642C40.1943 15.4038 40.0547 15.5256 39.8936 15.6294C39.736 15.7297 39.5659 15.8138 39.3833 15.8818C39.2007 15.9463 39.0109 15.9946 38.814 16.0269C38.6206 16.0591 38.429 16.0752 38.2393 16.0752C37.874 16.0752 37.5374 16.0143 37.2295 15.8926C36.9215 15.7708 36.6548 15.5918 36.4292 15.3555C36.2072 15.1156 36.0335 14.8219 35.9082 14.4746C35.7829 14.1237 35.7202 13.7209 35.7202 13.2661C35.7202 12.9009 35.7757 12.5607 35.8867 12.2456C36.0013 11.9269 36.1642 11.6512 36.3755 11.4185C36.5903 11.1821 36.8499 10.9977 37.1543 10.8652C37.4622 10.7327 37.8078 10.6665 38.1909 10.6665ZM38.207 11.354C37.7666 11.354 37.4175 11.4829 37.1597 11.7407C36.9054 11.9985 36.7461 12.3512 36.6816 12.7988H39.5444C39.5444 12.5876 39.514 12.3942 39.4531 12.2188C39.3923 12.0397 39.3045 11.8875 39.1899 11.7622C39.0754 11.6333 38.9339 11.533 38.7656 11.4614C38.6009 11.3898 38.4147 11.354 38.207 11.354ZM42.9712 16.0806C42.5666 16.0806 42.255 15.9642 42.0366 15.7314C41.8182 15.4987 41.709 15.1657 41.709 14.7324V11.5312H41.1074C41.0537 11.5312 41.0072 11.5133 40.9678 11.4775C40.932 11.4417 40.9141 11.3898 40.9141 11.3218V10.9458L41.7412 10.8384L41.9614 9.22168C41.9686 9.16797 41.9901 9.125 42.0259 9.09277C42.0653 9.06055 42.1136 9.04443 42.1709 9.04443H42.6543V10.8438H44.0991V11.5312H42.6543V14.668C42.6543 14.8828 42.7026 15.0439 42.7993 15.1514C42.8996 15.2588 43.0285 15.3125 43.186 15.3125C43.2791 15.3125 43.3579 15.3 43.4224 15.2749C43.4904 15.2498 43.5477 15.2212 43.5942 15.189C43.6408 15.1567 43.6802 15.1281 43.7124 15.103C43.7482 15.078 43.7804 15.0654 43.8091 15.0654C43.8413 15.0654 43.8664 15.0726 43.8843 15.0869C43.9058 15.1012 43.9255 15.1245 43.9434 15.1567L44.2227 15.6079C44.0615 15.7583 43.8717 15.8747 43.6533 15.957C43.4349 16.0394 43.2075 16.0806 42.9712 16.0806Z" fill="black"/>
<defs>
<linearGradient id="paint0_linear_2_5" x1="-2.30968e-07" y1="12" x2="64" y2="12" gradientUnits="userSpaceOnUse">
<stop stop-color="#0078D7"/>
<stop offset="1" stop-color="#FF4AA7"/>
</linearGradient>
</defs>
</svg>
